<svg height="200" width="200" xmlns="http://www.w3.org/2000/svg" viewBox="0 0 511.999 511.999" xml:space="preserve">
  <defs>
    <linearGradient id="b" x1="0%" y1="0%" x2="100%" y2="100%">
      <stop offset="0%" style="stop-color:#4da8ff;stop-opacity:1"/>
      <stop offset="50%" style="stop-color:#2979ff;stop-opacity:1"/>
      <stop offset="100%" style="stop-color:#0043b8;stop-opacity:1"/>
    </linearGradient>
    <filter id="a" x="-20%" y="-20%" width="150%" height="150%">
      <feDropShadow dx="0" dy="4" stdDeviation="6" flood-color="#000" flood-opacity=".25"/>
    </filter>
  </defs>
  <g filter="url(#a)">
    <path style="fill:url(#b)" d="m159.308 490.576 8.725-103.568h-44.257c-47.166 0-85.539-38.373-85.539-85.539V85.539C38.237 38.373 76.61 0 123.776 0h264.447c47.166 0 85.539 38.373 85.539 85.539v215.93c0 47.166-38.373 85.539-85.539 85.539h-41.919L191.102 507.81c-13.476 10.488-33.247-.001-31.794-17.234"/>
    <path style="fill:#f9fbff" d="M175.972 263.117V123.891c0-15.189 16.48-24.676 29.61-17.095l120.575 69.613c13.152 7.593 13.132 26.608 0 34.189l-120.575 69.613c-13.051 7.537-29.61-1.805-29.61-17.094"/>
  </g>
</svg>
